<svg viewBox="0 0 155 43" xmlns="http://www.w3.org/2000/svg" data-logo="logo">
        <g transform="translate(0, 1) rotate(0)" id="logogram" style="opacity: 1;"><path fill="#0004E8" d="M0.603516 15.43V31.43H5.60352C6.12878 31.43 6.64893 31.5334 7.13428 31.7345C7.61951 31.9355 8.06055 32.2301 8.43188 32.6016C8.80334 32.973 9.09802 33.414 9.29907 33.8993C9.5 34.3846 9.60352 34.9047 9.60352 35.43V40.43H21.6035L36.6035 25.43V9.42999H31.6035C31.0782 9.42999 30.5581 9.32654 30.0728 9.12552C29.5875 8.9245 29.1465 8.62985 28.7751 8.25842C28.4037 7.88699 28.109 7.44601 27.908 6.96072C27.707 6.47543 27.6035 5.95529 27.6035 5.42999V0.429993H15.6035L0.603516 15.43ZM17.6035 30.43H10.6035V19.43L19.6035 10.43H26.6035V21.43L17.6035 30.43Z" clip-rule="evenodd" fill-rule="evenodd"></path></g>
        <g transform="translate(43, 9)" id="logotype" style="opacity: 1;"><path d="M12.51 25L6.74 25Q7.40 22.99 8.13 20.77Q8.85 18.54 9.50 16.55L9.50 16.55L12.32 7.99Q13.07 5.66 13.68 3.80Q14.29 1.93 14.91 0.04L14.91 0.04L22.33 0.04Q22.96 2.00 23.56 3.86Q24.17 5.71 24.92 7.99L24.92 7.99L27.70 16.56Q28.38 18.63 29.09 20.82Q29.80 23.00 30.45 25L30.45 25L24.50 25Q23.94 23.00 23.34 20.91Q22.75 18.82 22.21 16.95L22.21 16.95L18.77 4.93L18.36 4.93L14.89 16.83Q14.33 18.77 13.71 20.90Q13.09 23.02 12.51 25L12.51 25ZM25.01 19.79L12.76 19.79L13.37 15.48L24.52 15.48L25.01 19.79ZM37.17 25L31.94 25Q31.94 23.13 31.94 21.37Q31.94 19.61 31.94 17.44L31.94 17.44L31.94 15.69Q31.94 13.68 31.94 11.65Q31.94 9.62 31.94 7.53L31.94 7.53L36.33 7.27L36.56 10.49L36.99 10.49Q37.68 9.07 38.50 8.33Q39.32 7.59 40.18 7.32Q41.04 7.06 41.82 7.06L41.82 7.06Q42.23 7.06 42.72 7.13Q43.22 7.20 43.66 7.38L43.66 7.38L43.21 12.45Q42.52 12.40 41.98 12.36Q41.44 12.33 40.83 12.33L40.83 12.33Q40.34 12.33 39.82 12.43Q39.30 12.54 38.81 12.85Q38.32 13.17 37.90 13.73Q37.48 14.29 37.17 15.18L37.17 15.18L37.17 17.72Q37.17 19.68 37.17 21.40Q37.17 23.13 37.17 25L37.17 25ZM49.12 25.42L49.12 25.42Q47.62 25.42 46.50 24.79Q45.38 24.16 44.75 23.01Q44.12 21.87 44.12 20.29L44.12 20.29Q44.12 18.80 44.64 17.80Q45.17 16.79 46.00 16.16Q46.83 15.53 47.82 15.20Q48.81 14.87 49.75 14.71L49.75 14.71L54.62 13.96Q54.65 12.94 54.23 12.37Q53.81 11.80 53.01 11.58Q52.22 11.35 51.12 11.35L51.12 11.35Q50.52 11.35 49.82 11.45Q49.12 11.54 48.36 11.73Q47.60 11.93 46.78 12.21Q45.97 12.49 45.15 12.89L45.15 12.89L44.90 8.43Q45.55 8.20 46.39 7.95Q47.23 7.71 48.21 7.51Q49.19 7.31 50.28 7.18Q51.38 7.06 52.53 7.06L52.53 7.06Q54.72 7.06 56.27 7.70Q57.82 8.34 58.64 9.70Q59.46 11.07 59.46 13.27L59.46 13.27Q59.46 14.13 59.46 15.37Q59.46 16.62 59.46 17.60L59.46 17.60L59.46 19.26Q59.46 20.59 59.46 22.00Q59.46 23.41 59.46 25L59.46 25L55.00 25L54.67 22.67L54.27 22.67Q53.79 23.34 53.08 23.98Q52.36 24.61 51.37 25.02Q50.38 25.42 49.12 25.42ZM51.20 21.38L51.20 21.38Q51.82 21.38 52.43 21.09Q53.04 20.80 53.57 20.27Q54.09 19.73 54.48 19.00L54.48 19.00L54.48 16.32Q54.27 16.48 53.94 16.61Q53.62 16.74 53.00 16.89Q52.38 17.04 51.27 17.27L51.27 17.27Q50.64 17.39 50.19 17.68Q49.73 17.98 49.48 18.45Q49.23 18.91 49.23 19.54L49.23 19.54Q49.23 20.54 49.83 20.96Q50.43 21.38 51.20 21.38ZM66.38 25L60.64 25Q61.32 23.77 61.84 22.88Q62.37 21.99 62.82 21.18Q63.28 20.36 63.80 19.45L63.80 19.45L66.13 15.41L66.15 16.55L63.82 12.78Q63.28 11.91 62.79 11.13Q62.30 10.35 61.77 9.49Q61.25 8.64 60.57 7.53L60.57 7.53L66.39 7.38Q66.95 8.43 67.40 9.32Q67.84 10.21 68.35 11.21L68.35 11.21L69.61 13.66L70.00 13.66L71.22 11.23Q71.71 10.25 72.13 9.40Q72.55 8.55 73.06 7.53L73.06 7.53L78.96 7.53Q78.22 8.69 77.69 9.51Q77.16 10.33 76.68 11.07Q76.21 11.80 75.63 12.71L75.63 12.71L73.20 16.49L72.92 15.37L75.63 19.52Q76.49 20.82 77.29 22.02Q78.08 23.23 79.22 25L79.22 25L72.99 25Q72.48 24.04 72.07 23.24Q71.66 22.45 71.15 21.46L71.15 21.46L69.75 18.79L69.40 18.79L68.16 21.34Q67.69 22.34 67.28 23.15Q66.88 23.97 66.38 25L66.38 25ZM89.34 25.45L89.34 25.45Q85.96 25.45 83.81 24.27Q81.67 23.07 80.66 20.99Q79.66 18.91 79.66 16.21L79.66 16.21Q79.66 13.52 80.60 11.45Q81.55 9.39 83.43 8.23Q85.31 7.06 88.11 7.06L88.11 7.06Q90.49 7.06 92.19 7.91Q93.89 8.76 94.80 10.47Q95.71 12.19 95.71 14.80L95.71 14.80Q95.71 15.50 95.67 16.04Q95.64 16.58 95.55 17.13L95.55 17.13L91.07 15.43Q91.10 15.20 91.12 14.95Q91.14 14.71 91.14 14.50L91.14 14.50Q91.14 12.73 90.31 11.73Q89.48 10.72 88.16 10.72L88.16 10.72Q87.17 10.72 86.40 11.31Q85.63 11.89 85.19 12.94Q84.75 13.99 84.75 15.44L84.75 15.44L84.75 16.30Q84.75 17.82 85.30 18.91Q85.85 19.99 87.01 20.57Q88.16 21.15 89.97 21.15L89.97 21.15Q90.67 21.15 91.58 21.02Q92.50 20.89 93.46 20.62Q94.41 20.34 95.23 19.93L95.23 19.93L95.41 24.34Q94.73 24.65 93.82 24.90Q92.92 25.16 91.79 25.31Q90.65 25.45 89.34 25.45ZM95.55 17.13L81.67 17.13L81.67 14.32L92.50 14.10L95.55 14.95L95.55 17.13ZM103.35 25.45L103.35 25.45Q102.06 25.45 100.89 25.31Q99.71 25.16 98.73 24.89Q97.75 24.61 97.02 24.27L97.02 24.27L97.35 19.84Q98.12 20.31 99.07 20.67Q100.03 21.03 101.03 21.22Q102.04 21.41 103.00 21.41L103.00 21.41Q103.70 21.41 104.26 21.28Q104.82 21.15 105.14 20.81Q105.45 20.47 105.45 19.79L105.45 19.79Q105.45 19.29 105.11 18.98Q104.77 18.66 103.97 18.39Q103.18 18.12 101.80 17.77L101.80 17.77Q100.24 17.37 99.17 16.75Q98.10 16.13 97.56 15.15Q97.02 14.17 97.02 12.64L97.02 12.64Q97.02 10.00 98.74 8.54Q100.47 7.08 103.44 7.08L103.44 7.08Q104.74 7.08 105.93 7.25Q107.12 7.43 108.09 7.72Q109.06 8.01 109.72 8.30L109.72 8.30L109.37 12.77Q108.57 12.26 107.62 11.92Q106.68 11.58 105.81 11.40Q104.95 11.23 104.39 11.23L104.39 11.23Q103.83 11.23 103.36 11.38Q102.90 11.52 102.64 11.86Q102.37 12.19 102.37 12.73L102.37 12.73Q102.37 13.19 102.60 13.53Q102.83 13.87 103.46 14.16Q104.09 14.45 105.30 14.78L105.30 14.78Q107.19 15.29 108.39 15.87Q109.60 16.46 110.19 17.37Q110.77 18.28 110.77 19.79L110.77 19.79Q110.77 21.46 110.01 22.75Q109.25 24.04 107.61 24.75Q105.98 25.45 103.35 25.45Z" fill="#3b3b3b"></path></g>
</svg>